<?xml version="1.0" encoding="UTF-8" standalone="no"?><!DOCTYPE svg PUBLIC "-//W3C//DTD SVG 1.1//EN" "http://www.w3.org/Graphics/SVG/1.1/DTD/svg11.dtd"><svg width="100%" height="100%" viewBox="0 0 300 300" version="1.1" xmlns="http://www.w3.org/2000/svg" xmlns:xlink="http://www.w3.org/1999/xlink" xml:space="preserve" xmlns:serif="http://www.serif.com/" style="fill-rule:evenodd;clip-rule:evenodd;stroke-linejoin:round;stroke-miterlimit:2;"><ellipse id="shape" cx="150" cy="149.961" rx="150" ry="149.961" style="fill:#071339;"/><path d="M150,0c82.787,0 150,67.195 150,149.961c0,82.765 -67.213,149.96 -150,149.96c-82.787,0 -150,-67.195 -150,-149.96c0,-82.766 67.213,-149.961 150,-149.961Zm0,7.919c78.416,-0 142.081,63.646 142.081,142.042c0,78.395 -63.665,142.042 -142.081,142.042c-78.416,0 -142.081,-63.647 -142.081,-142.042c0,-78.396 63.665,-142.042 142.081,-142.042Z" style="fill:#fff;"/><path id="envelope" d="M212.731,93.725l-109.659,0c-6.988,0 -12.653,5.665 -12.653,12.653l0,75.918c0,6.988 5.665,12.653 12.653,12.653l109.659,0c6.988,0 12.653,-5.665 12.653,-12.653l0,-75.918c0,-6.988 -5.665,-12.653 -12.653,-12.653Zm0,12.653l0,10.756c-5.91,4.814 -15.333,12.298 -35.478,28.072c-4.439,3.492 -13.233,11.881 -19.351,11.783c-6.118,0.099 -14.915,-8.293 -19.352,-11.783c-20.142,-15.772 -29.567,-23.257 -35.478,-28.072l-0,-10.756l109.659,0Zm-109.659,75.918l-0,-48.925c6.04,4.811 14.606,11.562 27.662,21.785c5.762,4.536 15.852,14.548 27.168,14.487c11.26,0.061 21.222,-9.806 27.165,-14.484c13.055,-10.224 21.624,-16.977 27.664,-21.788l0,48.925l-109.659,0Z" style="fill:#fff;fill-rule:nonzero;"/></svg>