<?xml version="1.0" encoding="UTF-8" standalone="no"?><!DOCTYPE svg PUBLIC "-//W3C//DTD SVG 1.1//EN" "http://www.w3.org/Graphics/SVG/1.1/DTD/svg11.dtd"><svg width="100%" height="100%" viewBox="0 0 300 301" version="1.1" xmlns="http://www.w3.org/2000/svg" xmlns:xlink="http://www.w3.org/1999/xlink" xml:space="preserve" xmlns:serif="http://www.serif.com/" style="fill-rule:evenodd;clip-rule:evenodd;stroke-linejoin:round;stroke-miterlimit:2;"><path id="search-plus" d="M178.134,112.505c-0,-3.867 -3.165,-7.031 -7.032,-7.031l-32.814,-0l0,-32.814c0,-3.867 -3.164,-7.032 -7.031,-7.032l-18.751,0c-3.868,0 -7.032,3.165 -7.032,7.032l0,32.814l-32.814,-0c-3.867,-0 -7.032,3.164 -7.032,7.031l0,18.751c0,3.868 3.165,7.032 7.032,7.032l32.814,0l0,32.814c0,3.867 3.164,7.032 7.032,7.032l18.751,-0c3.867,-0 7.031,-3.165 7.031,-7.032l0,-32.814l32.814,0c3.867,0 7.032,-3.164 7.032,-7.032l-0,-18.751Zm117.779,166.825c5.45,-5.508 5.45,-14.415 0,-19.923l-58.421,-58.421c-2.637,-2.636 -6.211,-4.101 -9.961,-4.101l-9.551,-0c16.172,-20.685 25.782,-46.702 25.782,-75.004c0,-67.328 -54.553,-121.881 -121.881,-121.881c-67.328,-0 -121.881,54.553 -121.881,121.881c-0,67.328 54.553,121.881 121.881,121.881c28.302,0 54.319,-9.61 75.004,-25.782l-0,9.551c-0,3.75 1.465,7.324 4.102,9.961l58.479,58.421c5.449,5.508 14.356,5.508 19.864,0l16.583,-16.583Zm-94.34,-157.449c-0,44.065 -35.627,79.691 -79.692,79.691c-44.065,0 -79.691,-35.626 -79.691,-79.691c-0,-44.065 35.626,-79.692 79.691,-79.692c44.065,0 79.692,35.627 79.692,79.692Z" style="fill:#fff;fill-rule:nonzero;"/></svg>