<?xml version="1.0" encoding="UTF-8" standalone="no"?><!DOCTYPE svg PUBLIC "-//W3C//DTD SVG 1.1//EN" "http://www.w3.org/Graphics/SVG/1.1/DTD/svg11.dtd"><svg width="100%" height="100%" viewBox="0 0 300 300" version="1.1" xmlns="http://www.w3.org/2000/svg" xmlns:xlink="http://www.w3.org/1999/xlink" xml:space="preserve" xmlns:serif="http://www.serif.com/" style="fill-rule:evenodd;clip-rule:evenodd;stroke-linejoin:round;stroke-miterlimit:2;"><ellipse id="shape" cx="150" cy="149.961" rx="150" ry="149.961" style="fill:#071339;"/><path d="M150,0c82.787,0 150,67.195 150,149.961c0,82.765 -67.213,149.96 -150,149.96c-82.787,0 -150,-67.195 -150,-149.96c0,-82.766 67.213,-149.961 150,-149.961Zm0,7.919c78.416,-0 142.081,63.646 142.081,142.042c0,78.395 -63.665,142.042 -142.081,142.042c-78.416,0 -142.081,-63.647 -142.081,-142.042c0,-78.396 63.665,-142.042 142.081,-142.042Z" style="fill:#fff;"/><path id="map-marker-alt" d="M149.991,209.097c2.514,3.63 7.89,3.631 10.403,-0c38.301,-55.526 45.411,-61.224 45.411,-81.631c-0,-27.952 -22.66,-50.611 -50.612,-50.611c-27.952,-0 -50.612,22.659 -50.612,50.612c-0,20.406 7.109,26.104 45.41,81.63Zm5.202,-60.542c-11.647,-0 -21.088,-9.442 -21.088,-21.088c-0,-11.647 9.441,-21.089 21.088,-21.089c11.647,0 21.088,9.442 21.088,21.088c0,11.647 -9.441,21.089 -21.088,21.089Z" style="fill:#fff;fill-rule:nonzero;"/></svg>