<?xml version="1.0" encoding="iso-8859-1"?>
<!-- Generator: Adobe Illustrator 19.0.0, SVG Export Plug-In . SVG Version: 6.00 Build 0)  -->
<svg version="1.1" id="Capa_1" xmlns="http://www.w3.org/2000/svg" xmlns:xlink="http://www.w3.org/1999/xlink" x="0px" y="0px"
	 viewBox="0 0 490 490" style="enable-background:new 0 0 490 490;" xml:space="preserve">
<path id="XMLID_1421_" d="M380,200c0-8.284,6.716-15,15-15h20c8.284,0,15,6.716,15,15s-6.716,15-15,15h-20
	C386.716,215,380,208.284,380,200z M490,90v315c0,22.056-17.944,40-40,40h-10c-18.604,0-34.283-12.767-38.734-30H88.734
	c-4.451,17.233-20.13,30-38.734,30H40c-22.056,0-40-17.944-40-40V90c0-24.813,20.187-45,45-45h400C469.813,45,490,65.187,490,90z
	 M30,325h290V135H30V325z M460,355H30v50c0,5.514,4.486,10,10,10h10c5.514,0,10-4.486,10-10v-5c0-8.284,6.716-15,15-15h340
	c8.284,0,15,6.716,15,15v5c0,5.514,4.486,10,10,10h10c5.514,0,10-4.486,10-10V355z M460,135H350v190h110V135z M460,90
	c0-8.271-6.729-15-15-15H45c-8.271,0-15,6.729-15,15v15h430V90z M395,275h20c8.284,0,15-6.716,15-15s-6.716-15-15-15h-20
	c-8.284,0-15,6.716-15,15S386.716,275,395,275z"/>
<g>
</g>
<g>
</g>
<g>
</g>
<g>
</g>
<g>
</g>
<g>
</g>
<g>
</g>
<g>
</g>
<g>
</g>
<g>
</g>
<g>
</g>
<g>
</g>
<g>
</g>
<g>
</g>
<g>
</g>
</svg>
