<?xml version="1.0" encoding="UTF-8" standalone="no"?><!DOCTYPE svg PUBLIC "-//W3C//DTD SVG 1.1//EN" "http://www.w3.org/Graphics/SVG/1.1/DTD/svg11.dtd"><svg width="100%" height="100%" viewBox="0 0 300 238" version="1.1" xmlns="http://www.w3.org/2000/svg" xmlns:xlink="http://www.w3.org/1999/xlink" xml:space="preserve" xmlns:serif="http://www.serif.com/" style="fill-rule:evenodd;clip-rule:evenodd;stroke-linejoin:round;stroke-miterlimit:2;"><path id="_-" serif:id="“" d="M18.475,237.639c-12.317,-35.206 -18.475,-70.118 -18.475,-104.737c0,-39.9 10.557,-72.025 31.672,-96.376c21.114,-24.351 51.906,-36.526 92.375,-36.526l-0,55.449c-31.085,0 -46.628,19.95 -46.628,59.85l0,13.202l56.305,-0l0,109.138l-115.249,-0Zm166.276,-0c-11.73,-35.793 -17.596,-70.705 -17.596,-104.737c0,-39.9 10.411,-72.025 31.232,-96.376c20.821,-24.351 51.466,-36.526 91.936,-36.526l-0,55.449c-30.499,0 -45.748,19.95 -45.748,59.85l-0,13.202l55.425,-0l-0,109.138l-115.249,-0Z" style="fill:#08143a;fill-rule:nonzero;"/></svg>