<?xml version="1.0" encoding="iso-8859-1"?>
<!-- Generator: Adobe Illustrator 18.0.0, SVG Export Plug-In . SVG Version: 6.00 Build 0)  -->
<!DOCTYPE svg PUBLIC "-//W3C//DTD SVG 1.1//EN" "http://www.w3.org/Graphics/SVG/1.1/DTD/svg11.dtd">
<svg version="1.1" id="Capa_1" xmlns="http://www.w3.org/2000/svg" xmlns:xlink="http://www.w3.org/1999/xlink" x="0px" y="0px"
	 viewBox="0 0 297 297" style="enable-background:new 0 0 297 297;" xml:space="preserve">
<g>
	<path d="M116.023,39.253C52.048,39.253,0,91.301,0,155.276S52.048,271.3,116.023,271.3s116.023-52.048,116.023-116.023
		S179.999,39.253,116.023,39.253z M116.023,251.467c-53.04,0-96.19-43.15-96.19-96.19s43.15-96.19,96.19-96.19
		s96.19,43.15,96.19,96.19S169.063,251.467,116.023,251.467z"/>
	<path d="M116.023,77.148c-43.08,0-78.128,35.049-78.128,78.128s35.049,78.128,78.128,78.128s78.128-35.049,78.128-78.128
		S159.103,77.148,116.023,77.148z M116.023,213.572c-32.144,0-58.295-26.151-58.295-58.295s26.151-58.295,58.295-58.295
		s58.295,26.151,58.295,58.295S148.168,213.572,116.023,213.572z"/>
	<path d="M297,78.258c0-11.726-3.41-24.255-9.354-34.371c-7.268-12.368-17.152-19.178-27.833-19.178s-20.565,6.811-27.833,19.178
		c-5.944,10.116-9.354,22.644-9.354,34.371c0,20.017,10.418,34.049,27.27,37.923v55.151c-8.184,3.768-13.883,12.042-13.883,21.627
		v55.533c0,13.123,10.677,23.8,23.8,23.8c13.123,0,23.8-10.677,23.8-23.8v-55.533c0-9.585-5.699-17.859-13.883-21.627v-55.151
		C286.582,112.307,297,98.275,297,78.258z M242.459,78.258c0-16.726,10.097-33.716,17.354-33.716s17.354,16.99,17.354,33.716
		c0,12.722-5.839,19.173-17.354,19.173C248.298,97.43,242.459,90.98,242.459,78.258z M263.78,248.492
		c0,2.188-1.779,3.967-3.967,3.967c-2.188,0-3.967-1.779-3.967-3.967v-55.533c0-2.188,1.779-3.967,3.967-3.967
		c2.188,0,3.967,1.779,3.967,3.967V248.492z"/>
</g>
<g>
</g>
<g>
</g>
<g>
</g>
<g>
</g>
<g>
</g>
<g>
</g>
<g>
</g>
<g>
</g>
<g>
</g>
<g>
</g>
<g>
</g>
<g>
</g>
<g>
</g>
<g>
</g>
<g>
</g>
</svg>
