<?xml version="1.0" encoding="iso-8859-1"?>
<!-- Generator: Adobe Illustrator 16.0.0, SVG Export Plug-In . SVG Version: 6.00 Build 0)  -->
<!DOCTYPE svg PUBLIC "-//W3C//DTD SVG 1.1//EN" "http://www.w3.org/Graphics/SVG/1.1/DTD/svg11.dtd">
<svg version="1.1" id="Capa_1" xmlns="http://www.w3.org/2000/svg" xmlns:xlink="http://www.w3.org/1999/xlink" x="0px" y="0px"
	 width="53px" height="53px" viewBox="0 0 53 53" style="enable-background:new 0 0 53 53;" xml:space="preserve">
<g>
	<path d="M26.5,32.873c4.448,0,8.053,3.605,8.053,8.054c0,4.447-3.605,8.053-8.053,8.053c-4.448,0-8.053-3.605-8.053-8.053
		C18.447,36.479,22.052,32.873,26.5,32.873z M41.387,30.491c1.562-1.562,1.562-4.095,0-5.657c-8.208-8.208-21.564-8.208-29.772,0
		c-1.562,1.562-1.562,4.095,0,5.657s4.095,1.562,5.657,0c5.089-5.087,13.369-5.088,18.459,0c0.78,0.781,1.806,1.172,2.828,1.172
		C39.582,31.663,40.605,31.272,41.387,30.491z M6.83,20.176c5.259-5.26,12.246-8.156,19.671-8.156
		c7.425,0,14.413,2.896,19.672,8.156c1.562,1.562,4.096,1.562,5.656,0c1.562-1.562,1.562-4.095,0-5.657
		C45.059,7.748,36.063,4.021,26.5,4.021c-9.562,0-18.558,3.729-25.329,10.499c-1.562,1.562-1.562,4.095,0,5.657
		C1.953,20.957,2.977,21.347,4,21.347S6.047,20.956,6.83,20.176z"/>
</g>
<g>
</g>
<g>
</g>
<g>
</g>
<g>
</g>
<g>
</g>
<g>
</g>
<g>
</g>
<g>
</g>
<g>
</g>
<g>
</g>
<g>
</g>
<g>
</g>
<g>
</g>
<g>
</g>
<g>
</g>
</svg>
