<?xml version="1.0" encoding="UTF-8" standalone="no"?><!DOCTYPE svg PUBLIC "-//W3C//DTD SVG 1.1//EN" "http://www.w3.org/Graphics/SVG/1.1/DTD/svg11.dtd"><svg width="100%" height="100%" viewBox="0 0 300 181" version="1.1" xmlns="http://www.w3.org/2000/svg" xmlns:xlink="http://www.w3.org/1999/xlink" xml:space="preserve" xmlns:serif="http://www.serif.com/" style="fill-rule:evenodd;clip-rule:evenodd;stroke-linejoin:round;stroke-miterlimit:2;"><path id="handshake" d="M203.766,0l-40.266,0c-3.75,0 -7.36,1.406 -10.125,3.938l-46.078,42.187c-0.047,0.047 -0.094,0.141 -0.141,0.187c-7.781,7.313 -7.64,18.985 -0.984,26.25c5.953,6.516 18.469,8.251 26.297,1.266c0.047,-0.047 0.141,-0.047 0.187,-0.094l37.454,-34.312c3.046,-2.766 7.827,-2.578 10.593,0.468c2.813,3.047 2.578,7.782 -0.469,10.594l-12.234,11.203l68.25,55.407c1.36,1.125 2.578,2.343 3.703,3.609l0,-90.703l-25.594,-25.594c-2.765,-2.812 -6.609,-4.406 -10.593,-4.406Zm51.234,30.094l-0,104.953c-0,8.297 6.703,15 15,15l30,-0l0,-119.953l-45,-0Zm22.5,104.953c-4.125,-0 -7.5,-3.375 -7.5,-7.5c0,-4.125 3.375,-7.5 7.5,-7.5c4.125,-0 7.5,3.375 7.5,7.5c0,4.125 -3.375,7.5 -7.5,7.5Zm-277.5,14.953l30,-0c8.297,-0 15,-6.703 15,-15l0,-104.906l-45,-0l0,119.906Zm22.5,-29.953c4.125,-0 7.5,3.375 7.5,7.5c0,4.125 -3.375,7.5 -7.5,7.5c-4.125,-0 -7.5,-3.375 -7.5,-7.5c0,-4.172 3.375,-7.5 7.5,-7.5Zm204.328,8.719l-69.984,-56.813l-14.063,12.891c-13.921,12.703 -35.25,11.484 -47.671,-2.063c-12.61,-13.781 -11.626,-35.109 2.062,-47.671l38.343,-35.11l-39.281,-0c-3.984,-0 -7.781,1.594 -10.593,4.406l-25.641,25.594l0,104.953l8.578,0l42.422,38.391c12.844,10.453 31.734,8.484 42.187,-4.36l0.094,-0.093l8.391,7.265c7.453,6.094 18.469,4.922 24.516,-2.531l14.718,-18.094l2.532,2.063c6.421,5.203 15.89,4.265 21.093,-2.203l4.453,-5.485c5.25,-6.468 4.266,-15.89 -2.156,-21.14Z" style="fill:#d1b35c;fill-rule:nonzero;"/></svg>