<?xml version="1.0" encoding="UTF-8" standalone="no"?><!DOCTYPE svg PUBLIC "-//W3C//DTD SVG 1.1//EN" "http://www.w3.org/Graphics/SVG/1.1/DTD/svg11.dtd"><svg width="100%" height="100%" viewBox="0 0 300 210" version="1.1" xmlns="http://www.w3.org/2000/svg" xmlns:xlink="http://www.w3.org/1999/xlink" xml:space="preserve" xmlns:serif="http://www.serif.com/" style="fill-rule:evenodd;clip-rule:evenodd;stroke-linejoin:round;stroke-miterlimit:2;"><path id="users" d="M45,90c16.547,0 30,-13.453 30,-30c0,-16.547 -13.453,-30 -30,-30c-16.547,0 -30,13.453 -30,30c0,16.547 13.453,30 30,30Zm210,0c16.547,0 30,-13.453 30,-30c0,-16.547 -13.453,-30 -30,-30c-16.547,0 -30,13.453 -30,30c0,16.547 13.453,30 30,30Zm15,15l-30,0c-8.25,0 -15.703,3.328 -21.14,8.719c18.89,10.359 32.296,29.062 35.202,51.281l30.938,0c8.297,0 15,-6.703 15,-15l0,-15c0,-16.547 -13.453,-30 -30,-30Zm-120,0c29.016,0 52.5,-23.484 52.5,-52.5c0,-29.016 -23.484,-52.5 -52.5,-52.5c-29.016,0 -52.5,23.484 -52.5,52.5c0,29.016 23.484,52.5 52.5,52.5Zm36,15l-3.891,0c-9.75,4.688 -20.578,7.5 -32.109,7.5c-11.531,0 -22.312,-2.813 -32.109,-7.5l-3.891,0c-29.813,0 -54,24.187 -54,54l0,13.5c0,12.422 10.078,22.5 22.5,22.5l135,0c12.422,0 22.5,-10.078 22.5,-22.5l0,-13.5c0,-29.813 -24.187,-54 -54,-54Zm-104.86,-6.281c-5.437,-5.391 -12.89,-8.719 -21.14,-8.719l-30,0c-16.547,0 -30,13.453 -30,30l0,15c0,8.297 6.703,15 15,15l30.891,0c2.953,-22.219 16.359,-40.922 35.249,-51.281Z" style="fill:#d1b35c;fill-rule:nonzero;"/></svg>