<?xml version="1.0" encoding="UTF-8" standalone="no"?><!DOCTYPE svg PUBLIC "-//W3C//DTD SVG 1.1//EN" "http://www.w3.org/Graphics/SVG/1.1/DTD/svg11.dtd"><svg width="100%" height="100%" viewBox="0 0 300 300" version="1.1" xmlns="http://www.w3.org/2000/svg" xmlns:xlink="http://www.w3.org/1999/xlink" xml:space="preserve" xmlns:serif="http://www.serif.com/" style="fill-rule:evenodd;clip-rule:evenodd;stroke-linejoin:round;stroke-miterlimit:2;"><ellipse id="shape" cx="150" cy="149.961" rx="150" ry="149.961" style="fill:#071339;"/><path d="M150,0c82.787,0 150,67.195 150,149.961c0,82.765 -67.213,149.96 -150,149.96c-82.787,0 -150,-67.195 -150,-149.96c0,-82.766 67.213,-149.961 150,-149.961Zm0,7.919c78.416,-0 142.081,63.646 142.081,142.042c0,78.395 -63.665,142.042 -142.081,142.042c-78.416,0 -142.081,-63.647 -142.081,-142.042c0,-78.396 63.665,-142.042 142.081,-142.042Z" style="fill:#fff;"/><path id="phone-alt" d="M220.695,179.724l-29.524,-12.653c-0.76,-0.324 -1.597,-0.503 -2.476,-0.503c-1.976,-0 -3.744,0.901 -4.905,2.322l-13.074,15.975c-20.537,-9.683 -37.025,-26.172 -46.708,-46.708l15.974,-13.075c1.423,-1.157 2.333,-2.922 2.333,-4.898c0,-0.88 -0.188,-1.721 -0.514,-2.483l-12.653,-29.524c-0.982,-2.251 -3.229,-3.827 -5.841,-3.827c-0.486,0 -0.953,0.06 -1.408,0.164l-27.415,6.326c-2.805,0.648 -4.899,3.163 -4.899,6.165l-0.004,0.001c0,67.614 54.803,122.312 122.312,122.312l0.004,-0c3.001,-0 5.517,-2.098 6.164,-4.903l6.327,-27.415c0.102,-0.453 0.155,-0.924 0.155,-1.408c0,-2.628 -1.581,-4.881 -3.848,-5.868Z" style="fill:#fff;fill-rule:nonzero;"/></svg>